<svg xmlns="http://www.w3.org/2000/svg" width="30.745" height="20.497" viewBox="0 0 30.745 20.497"><defs><style>.a{fill:#f0f0f0;}.b{fill:#d80027;}.c{fill:#2e52b2;}</style></defs><g transform="translate(0 -85.331)"><rect class="a" width="30.745" height="20.497" transform="translate(0 85.331)"/><g transform="translate(0 87.893)"><rect class="b" width="30.745" height="2.562"/><rect class="b" width="30.745" height="2.562" transform="translate(0 5.124)"/><rect class="b" width="30.745" height="2.562" transform="translate(0 10.248)"/><rect class="b" width="30.745" height="2.562" transform="translate(0 15.372)"/></g><rect class="c" width="15.372" height="11.037" transform="translate(0 85.331)"/><g transform="translate(1.561 87.104)"><path class="a" d="M83.411,160.624l-.248.762h-.8l.648.47-.248.762.648-.47.648.47-.248-.762.648-.47h-.8Z" transform="translate(-78.979 -157.875)"/><path class="a" d="M83.659,207.159l-.247-.762-.248.762h-.8l.648.471-.248.762.648-.471.648.471-.248-.762.648-.471Z" transform="translate(-78.979 -200.9)"/><path class="a" d="M27.3,207.159l-.247-.762-.248.762H26l.648.471-.248.762.648-.471.648.471-.248-.762.648-.471Z" transform="translate(-26.001 -200.9)"/><path class="a" d="M27.049,160.624l-.248.762H26l.648.47-.248.762.648-.47.648.47-.248-.762.648-.47h-.8Z" transform="translate(-26.001 -157.875)"/><path class="a" d="M83.411,114.85l-.248.762h-.8l.648.471-.248.762.648-.471.648.471-.248-.762.648-.471h-.8Z" transform="translate(-78.979 -114.85)"/><path class="a" d="M27.049,114.85l-.248.762H26l.648.471-.248.762.648-.471.648.471-.248-.762.648-.471h-.8Z" transform="translate(-26.001 -114.85)"/><path class="a" d="M139.773,160.624l-.248.762h-.8l.648.47-.247.762.648-.47.648.47-.248-.762.648-.47h-.8Z" transform="translate(-131.956 -157.875)"/><path class="a" d="M140.021,207.159l-.247-.762-.248.762h-.8l.648.471-.247.762.648-.471.648.471-.248-.762.648-.471Z" transform="translate(-131.956 -200.9)"/><path class="a" d="M196.384,207.159l-.247-.762-.248.762h-.8l.648.471-.248.762.648-.471.648.471-.248-.762.648-.471Z" transform="translate(-184.935 -200.9)"/><path class="a" d="M196.136,160.624l-.248.762h-.8l.648.47-.248.762.648-.47.648.47-.248-.762.648-.47h-.8Z" transform="translate(-184.935 -157.875)"/><path class="a" d="M139.773,114.85l-.248.762h-.8l.648.471-.247.762.648-.471.648.471-.248-.762.648-.471h-.8Z" transform="translate(-131.956 -114.85)"/><path class="a" d="M196.136,114.85l-.248.762h-.8l.648.471-.248.762.648-.471.648.471-.248-.762.648-.471h-.8Z" transform="translate(-184.935 -114.85)"/></g></g></svg>